# xmcd
#
# Track frame offsets: 
#        150
#        21940
#        34223
#        47968
#        65098
#        80715
#        94073
#        114268
#        129170
#        140683
#        156775
#        172288
#
# Disc length: 2482 seconds
#
# Revision: 0
# Processed by: cddbd v1.4PL0 Copyright (c) Steve Scherf et al.
# Submitted via: ExactAudioCopy v0.90b4
#
DISCID=aa09b00c
DTITLE=Jonny Hill - Nie wieder allein
DYEAR=1900
DGENRE=Vocal
TTITLE0=Ruf Teddybär eins-vier
TTITLE1=Wenn ich nur fliegen könnte
TTITLE2=Alles gehabt und alles verloren
TTITLE3=Rosen für Mama
TTITLE4=Westwärts
TTITLE5=Nur allzugern
TTITLE6=Hallo Teddybär
TTITLE7=Das fremde Gesicht
TTITLE8=Lichter auf den Hügeln
TTITLE9=Sie ist stolz
TTITLE10=Lucille
TTITLE11=Ich danke Dir
EXTD=
EXTT0=
EXTT1=
EXTT2=
EXTT3=
EXTT4=
EXTT5=
EXTT6=
EXTT7=
EXTT8=
EXTT9=
EXTT10=
EXTT11=
PLAYORDER=
